<svg width="516" height="350" viewBox="0 0 516 350" fill="none" xmlns="http://www.w3.org/2000/svg">
<g clip-path="url(#clip0_5617_925)">
<path opacity="0.7" d="M152.389 180.42L89.9348 28.9991C80.0533 5.03152 52.7313 -6.33479 28.87 3.56785C5.03149 13.4934 -6.30717 40.9372 3.57431 64.9048L109.197 321.024C104.62 309.932 104.256 297.079 109.197 285.118L152.389 180.42ZM363.634 180.42L301.203 29.0448C305.756 40.1367 306.121 52.9438 301.18 64.9048L258.011 169.603L320.396 320.887C315.888 309.818 315.524 297.034 320.465 285.118L363.634 180.42ZM426.065 64.9048C421.124 52.9438 421.488 40.1138 426.065 29.0448H426.042L363.634 180.42L406.802 285.118C411.743 297.079 411.379 309.932 406.802 321.024L469.256 169.626L426.065 64.9048ZM197.72 314.438C197.197 316.519 196.536 318.6 195.74 320.59L258.011 169.603L214.842 64.9048C209.901 52.9438 210.266 40.1138 214.819 29.0448L152.389 180.42L195.557 285.118C199.246 294.015 199.974 303.414 198.221 312.196C198.085 312.951 197.925 313.683 197.72 314.438Z" fill="white"/>
<path d="M515.954 49.2159C515.727 53.7213 514.839 58.2495 513.268 62.6862C513.017 63.4409 512.721 64.1728 512.425 64.9046L469.257 169.603L426.065 64.9046C421.124 52.9437 421.488 40.1137 426.065 29.0447L426.088 28.999C426.156 28.7931 426.27 28.5644 426.361 28.3586C426.885 27.1236 427.454 25.9115 428.068 24.768C428.342 24.242 428.66 23.7618 428.956 23.2586C429.435 22.4353 429.89 21.612 430.414 20.8344C430.823 20.2398 431.256 19.6681 431.689 19.0734C432.167 18.4331 432.645 17.7699 433.146 17.1295C433.601 16.5578 434.102 16.0546 434.603 15.5058C435.149 14.9111 435.65 14.2937 436.22 13.7448C436.698 13.2416 437.244 12.7842 437.768 12.3268C438.36 11.7322 438.975 11.1834 439.612 10.6573C440.159 10.2228 440.705 9.81116 441.274 9.3995C441.934 8.89637 442.617 8.37036 443.278 7.93583C443.938 7.47844 444.621 7.08965 445.304 6.67799C445.942 6.31208 446.556 5.90042 447.194 5.58024C448.469 4.89415 449.744 4.27666 451.11 3.70491C451.247 3.6363 451.406 3.56769 451.565 3.49909C452.932 2.95021 454.32 2.46994 455.709 2.01255C456.392 1.82959 457.098 1.6695 457.781 1.50941C458.578 1.28071 459.352 1.07488 460.149 0.914794C460.923 0.754705 461.743 0.663225 462.54 0.548876C463.246 0.434527 463.951 0.297308 464.657 0.228698C465.454 0.160089 466.251 0.137219 467.025 0.0914794C467.777 0.0686095 468.528 0 469.257 0C469.985 0 470.736 0.0686095 471.465 0.0914794C472.262 0.137219 473.059 0.160089 473.833 0.228698C474.539 0.297308 475.245 0.434527 475.95 0.548876C476.747 0.663225 477.567 0.754705 478.364 0.914794C479.138 1.07488 479.889 1.28071 480.663 1.46367C481.392 1.6695 482.098 1.82959 482.804 2.01255C484.056 2.4242 485.331 2.8816 486.583 3.38474C486.993 3.5677 487.426 3.72778 487.835 3.91074C489.019 4.43675 490.158 4.96276 491.274 5.55737C492.002 5.94616 492.685 6.38069 493.391 6.81521C493.983 7.18113 494.598 7.52418 495.19 7.91296C495.941 8.4161 496.647 8.96498 497.353 9.51385C497.854 9.87977 498.4 10.2457 498.855 10.6345C499.538 11.2062 500.176 11.8008 500.836 12.3955C501.314 12.83 501.793 13.2645 502.248 13.7219C502.863 14.3165 503.409 14.9569 503.978 15.5744C504.411 16.1004 504.912 16.6035 505.344 17.1295C505.868 17.7927 506.346 18.4788 506.847 19.1649C507.257 19.7138 507.69 20.2627 508.054 20.8116C508.623 21.6577 509.124 22.5268 509.602 23.3958C509.875 23.8532 510.171 24.2878 510.422 24.768C511.128 26.1174 511.833 27.5353 512.425 28.999V29.0447C515.044 35.3796 516.273 42.2635 515.954 49.2159Z" fill="#F79725"/>
<path d="M406.803 321.024C406.211 322.51 405.551 323.883 404.822 325.232C404.526 325.804 404.162 326.33 403.82 326.901C403.388 327.679 402.955 328.434 402.454 329.166C402.044 329.806 401.589 330.401 401.133 330.995C400.655 331.636 400.223 332.253 399.722 332.871C399.266 333.442 398.743 333.968 398.242 334.54C397.718 335.135 397.217 335.706 396.648 336.278C396.147 336.758 395.624 337.216 395.1 337.719C394.508 338.268 393.893 338.862 393.256 339.366C392.732 339.8 392.163 340.212 391.616 340.601C390.933 341.104 390.296 341.63 389.59 342.087C388.952 342.544 388.247 342.91 387.609 343.322C386.949 343.688 386.334 344.1 385.674 344.466C384.421 345.152 383.124 345.746 381.803 346.318C381.621 346.387 381.439 346.478 381.234 346.547C379.891 347.096 378.524 347.599 377.181 347.987C376.475 348.216 375.769 348.353 375.064 348.536C374.29 348.742 373.515 348.948 372.741 349.108C371.944 349.268 371.148 349.36 370.351 349.497C369.622 349.588 368.916 349.703 368.188 349.794C367.436 349.886 366.639 349.886 365.842 349.931C365.114 349.954 364.363 350 363.634 350C362.905 350 362.154 349.954 361.403 349.931C360.628 349.886 359.832 349.886 359.057 349.794C358.329 349.703 357.623 349.588 356.917 349.497C356.12 349.36 355.301 349.268 354.527 349.108C353.73 348.948 352.978 348.742 352.204 348.536C351.476 348.353 350.77 348.216 350.087 347.987C348.721 347.599 347.377 347.096 346.034 346.547C345.852 346.478 345.647 346.387 345.465 346.318C344.121 345.746 342.824 345.152 341.571 344.466C340.934 344.1 340.342 343.711 339.704 343.322C339.044 342.933 338.315 342.544 337.678 342.087C336.972 341.653 336.335 341.127 335.697 340.646C335.128 340.212 334.536 339.8 333.989 339.366C333.398 338.862 332.783 338.291 332.191 337.742C331.644 337.262 331.098 336.781 330.597 336.278C330.073 335.729 329.572 335.158 329.049 334.586C328.525 334.014 328.001 333.442 327.5 332.848C327.045 332.276 326.613 331.681 326.18 331.087C325.702 330.446 325.224 329.829 324.791 329.166C324.313 328.457 323.926 327.748 323.493 327.016C323.129 326.421 322.765 325.827 322.423 325.232C321.74 323.906 321.103 322.533 320.488 321.115C320.488 321.047 320.42 320.955 320.397 320.887C315.889 309.818 315.524 297.033 320.465 285.118L363.634 180.42L406.803 285.118C411.744 297.079 411.379 309.932 406.803 321.024Z" fill="#929A3B"/>
<path d="M301.18 64.9046L258.011 169.603L214.842 64.9046C209.902 52.9437 210.266 40.1137 214.82 29.0447V28.999C215.434 27.5353 216.095 26.1174 216.823 24.768C217.097 24.242 217.438 23.7618 217.711 23.2586C218.189 22.4353 218.668 21.612 219.168 20.8344C219.601 20.2398 220.034 19.6681 220.466 19.0734C220.922 18.4331 221.4 17.7699 221.901 17.1295C222.356 16.5578 222.88 16.0546 223.358 15.5058C223.904 14.9111 224.428 14.2937 224.974 13.7448C225.453 13.2416 225.999 12.7842 226.523 12.3268C227.115 11.7322 227.729 11.1834 228.39 10.6573C228.913 10.2228 229.483 9.81116 230.029 9.3995C230.689 8.89637 231.372 8.37036 232.033 7.93583C232.693 7.47844 233.399 7.08965 234.059 6.67799C234.697 6.31208 235.311 5.90042 235.972 5.58024C237.224 4.89415 238.499 4.27666 239.865 3.70491C240.002 3.6363 240.161 3.56769 240.32 3.49909C241.686 2.95021 243.075 2.46994 244.464 2.01255C245.147 1.82959 245.853 1.6695 246.536 1.50941C247.333 1.28071 248.13 1.07488 248.927 0.914794C249.678 0.754705 250.498 0.663225 251.295 0.548876C252 0.434527 252.706 0.297308 253.412 0.228698C254.209 0.160089 255.006 0.137219 255.78 0.0914794C256.531 0.0686095 257.283 0 258.011 0C258.74 0 259.491 0.0686095 260.22 0.0914794C261.017 0.137219 261.814 0.160089 262.611 0.228698C263.294 0.297308 263.999 0.434527 264.705 0.548876C265.502 0.663225 266.322 0.754705 267.119 0.914794C267.893 1.07488 268.667 1.28071 269.418 1.46367C270.147 1.6695 270.853 1.82959 271.559 2.01255C272.834 2.4242 274.086 2.8816 275.338 3.38474C275.771 3.5677 276.203 3.72778 276.59 3.91074C277.774 4.43675 278.913 4.96276 280.028 5.55737C280.757 5.94616 281.44 6.38069 282.169 6.81521C282.738 7.18113 283.375 7.52418 283.945 7.91296C284.696 8.4161 285.402 8.96498 286.108 9.51385C286.631 9.87977 287.155 10.2457 287.61 10.6345C288.293 11.2062 288.931 11.8008 289.591 12.3955C290.069 12.83 290.547 13.2645 291.003 13.7219C291.617 14.3165 292.164 14.9569 292.733 15.5744C293.189 16.1004 293.667 16.6035 294.099 17.1295C294.646 17.7927 295.124 18.4788 295.625 19.1649C296.035 19.7138 296.444 20.2627 296.831 20.8116C297.378 21.6577 297.879 22.5268 298.38 23.3958C298.63 23.8532 298.949 24.2878 299.177 24.768C299.905 26.1174 300.588 27.5353 301.18 28.999V29.0447C305.757 40.1366 306.121 52.9437 301.18 64.9046Z" fill="#829EB0"/>
<path d="M198.222 312.196C198.085 312.951 197.926 313.683 197.721 314.437C197.197 316.519 196.537 318.6 195.74 320.589L195.603 320.932C195.603 320.932 195.558 321.047 195.535 321.115C194.92 322.533 194.283 323.906 193.577 325.232C193.258 325.827 192.871 326.421 192.529 327.016C192.097 327.748 191.687 328.457 191.232 329.166C190.799 329.829 190.298 330.446 189.843 331.087C189.387 331.681 188.955 332.276 188.5 332.848C188.021 333.442 187.475 334.014 186.974 334.586C186.45 335.158 185.972 335.729 185.426 336.278C184.902 336.781 184.378 337.262 183.809 337.742C183.217 338.291 182.648 338.862 182.033 339.366C181.487 339.8 180.895 340.212 180.348 340.646C179.665 341.127 179.028 341.653 178.345 342.087C177.685 342.544 176.979 342.933 176.318 343.322C175.681 343.711 175.066 344.1 174.451 344.466C173.176 345.152 171.879 345.746 170.535 346.318C170.353 346.387 170.171 346.478 169.989 346.547C168.645 347.096 167.302 347.599 165.913 347.987C165.23 348.193 164.547 348.353 163.841 348.536C163.044 348.742 162.27 348.948 161.473 349.108C160.699 349.268 159.902 349.36 159.106 349.497C158.4 349.588 157.671 349.703 156.965 349.794C156.191 349.886 155.394 349.886 154.62 349.931C153.869 349.954 153.117 350 152.389 350C151.66 350 150.909 349.954 150.158 349.931C149.361 349.886 148.564 349.886 147.79 349.794C147.084 349.703 146.378 349.588 145.649 349.497C144.853 349.36 144.056 349.268 143.281 349.108C142.507 348.948 141.71 348.742 140.914 348.536C140.231 348.353 139.525 348.193 138.842 347.987C137.453 347.576 136.041 347.073 134.675 346.501C134.561 346.478 134.47 346.409 134.356 346.364C132.99 345.792 131.624 345.152 130.349 344.466C129.689 344.122 129.097 343.711 128.482 343.368C127.799 342.933 127.093 342.544 126.41 342.087C125.75 341.653 125.112 341.127 124.452 340.646C123.883 340.235 123.291 339.823 122.744 339.366C122.107 338.862 121.538 338.291 120.946 337.742C120.422 337.262 119.853 336.781 119.352 336.278C118.805 335.729 118.305 335.135 117.804 334.563C117.28 334.014 116.756 333.442 116.278 332.848C115.8 332.276 115.367 331.658 114.912 331.041C114.457 330.423 113.956 329.829 113.546 329.166C113.068 328.457 112.635 327.702 112.203 326.947C111.861 326.376 111.52 325.804 111.178 325.232C110.472 323.883 109.812 322.51 109.197 321.047C104.621 309.932 104.256 297.079 109.197 285.118L152.389 180.42L195.558 285.118C199.246 294.015 199.975 303.414 198.222 312.196Z" fill="#5D5BA0"/>
<path d="M109.197 285.118C104.256 297.079 104.62 309.932 109.197 321.024L3.57431 64.9048C-6.30717 40.9372 5.03149 13.4934 28.87 3.56785C52.7313 -6.33479 80.0533 5.03152 89.9348 28.9991L152.389 180.42L109.197 285.118Z" fill="#726DB4"/>
<path d="M198.221 312.196C199.975 303.414 199.246 294.015 195.558 285.118L152.389 180.42L214.82 29.0447C210.266 40.1137 209.902 52.9437 214.842 64.9046L258.011 169.603L195.74 320.589C196.537 318.6 197.197 316.519 197.721 314.437C197.925 313.683 198.085 312.951 198.221 312.196Z" fill="#B1C3CE"/>
<path d="M320.465 285.118C315.524 297.033 315.888 309.818 320.397 320.887L258.011 169.603L301.18 64.9046C306.121 52.9437 305.757 40.1366 301.203 29.0447L363.634 180.42L320.465 285.118Z" fill="#C2CA73"/>
<path d="M469.256 169.603L406.803 321.024C411.379 309.932 411.743 297.079 406.803 285.118L363.634 180.42L426.042 29.0447H426.065C421.488 40.1137 421.124 52.9437 426.065 64.9046L469.256 169.603Z" fill="#FBB872"/>
</g>
<defs>
<clipPath id="clip0_5617_925">
<rect width="516" height="350" fill="white"/>
</clipPath>
</defs>
</svg>
